<svg xmlns="http://www.w3.org/2000/svg" fill="none" viewBox="0 0 16 14">
    <path fill="currentColor"
          d="M.6 2.822h14c-.002-.697-.018-1.076-.17-1.373a1.56 1.56 0 0 0-.68-.68C13.418.6 12.982.6 12.111.6H3.09c-.871 0-1.307 0-1.64.17-.293.149-.53.387-.68.68-.15.296-.167.675-.169 1.372"/>
    <path stroke="currentColor" stroke-linecap="round" stroke-linejoin="round" stroke-width="1.2"
          d="M14.43 1.45c.17.332.17.767.17 1.637v7.471c0 .87 0 1.304-.17 1.637-.149.292-.387.531-.68.68-.332.17-.767.17-1.636.17H3.087c-.87 0-1.305 0-1.638-.17a1.56 1.56 0 0 1-.68-.68C.6 11.862.6 11.427.6 10.555V3.09c0-.871 0-1.307.17-1.64m13.66 0a1.56 1.56 0 0 0-.68-.68C13.418.6 12.982.6 12.111.6H3.09c-.871 0-1.307 0-1.64.17-.293.149-.53.387-.68.68m13.662 0c.15.296.167.675.169 1.372H.6c.002-.697.018-1.076.17-1.373m9.941 8.484H8.378m-3.89-3.11 1.556 1.555L4.49 9.933"/>
</svg>
