<svg xmlns="http://www.w3.org/2000/svg" fill="none" viewBox="0 0 16 18">
    <path stroke="currentColor" stroke-linecap="round" stroke-linejoin="round" stroke-width="1.273"
          d="M9.961 6.364 9.668 14m-4.063 0-.294-7.636M13.77 3.64q.435.067.867.141m-.867-.14-.906 11.779a1.91 1.91 0 0 1-1.904 1.762H4.314A1.91 1.91 0 0 1 2.41 15.42L1.503 3.64m12.266 0a41 41 0 0 0-2.951-.336m-9.315.336q-.434.065-.867.14m.867-.14q1.47-.222 2.951-.336m6.364 0v-.778c0-1-.772-1.836-1.773-1.867q-1.408-.045-2.817 0c-1.001.031-1.774.867-1.774 1.867v.778m6.364 0a41 41 0 0 0-6.364 0"/>
</svg>
