<svg xmlns="http://www.w3.org/2000/svg" fill="none" viewBox="0 0 32 32">
    <g clip-path="url(#a)">
        <rect width="32" height="32" fill="#1271FF" rx="5"/>
        <g clip-path="url(#b)">
            <g fill="#85F2FD" clip-path="url(#c)">
                <path
                    d="M16.094 20.283a4.29 4.29 0 0 1-4.286-4.285 4.29 4.29 0 0 1 4.286-4.284A4.29 4.29 0 0 1 20.379 16a4.29 4.29 0 0 1-4.285 4.285zm0-6.482A2.2 2.2 0 0 0 13.895 16c0 1.212.987 2.198 2.199 2.198A2.2 2.2 0 0 0 18.292 16a2.2 2.2 0 0 0-2.198-2.199M23.867 11.714l-2.844 7.14a1.043 1.043 0 0 0 1.938.772l3.152-7.912zM8.246 11.715H6l3.15 7.911a1.043 1.043 0 1 0 1.938-.772z"/>
            </g>
        </g>
    </g>
    <defs>
        <clipPath id="a">
            <rect width="32" height="32" fill="#fff" rx="5"/>
        </clipPath>
        <clipPath id="b">
            <path fill="#fff" d="M4.79 9.916H27v11.168H4.79z"/>
        </clipPath>
        <clipPath id="c">
            <path fill="#fff" d="M6 11.715h20.113v8.57H6z"/>
        </clipPath>
    </defs>
</svg>
