<svg xmlns="http://www.w3.org/2000/svg" fill="none" viewBox="0 0 131 32">
    <path fill="#111928"
          d="M47.629 21.954c-2.208 0-3.728-1.088-4.32-2.752l1.584-.928c.4 1.136 1.264 1.888 2.784 1.888 1.456 0 2.08-.656 2.08-1.472 0-.992-.88-1.328-2.544-1.84-1.744-.528-3.44-1.168-3.44-3.28 0-2.064 1.712-3.232 3.6-3.232 1.84 0 3.2.976 3.904 2.464l-1.552.896c-.4-.896-1.104-1.568-2.352-1.568-1.072 0-1.76.544-1.76 1.392 0 .864.624 1.232 2.256 1.744 1.856.592 3.728 1.168 3.728 3.392 0 2.048-1.632 3.296-3.968 3.296m9.665-8.416c1.792 0 3.072 1.216 3.072 3.296v4.912h-1.728V17.01c0-1.216-.704-1.856-1.792-1.856-1.136 0-2.032.672-2.032 2.304v4.288h-1.728v-11.2h1.728v4.224c.528-.832 1.392-1.232 2.48-1.232m8.708 8.416c-2.336 0-4.224-1.84-4.224-4.208 0-2.384 1.888-4.208 4.224-4.208 2.352 0 4.224 1.824 4.224 4.208 0 2.368-1.872 4.208-4.224 4.208m0-1.68c1.408 0 2.496-1.072 2.496-2.528s-1.088-2.528-2.496-2.528-2.496 1.072-2.496 2.528 1.088 2.528 2.496 2.528m10.095-4.864h-1.984v3.84c0 1.024.671 1.008 1.984.944v1.552c-2.656.32-3.712-.416-3.712-2.496v-3.84h-1.473v-1.664h1.472v-1.728l1.728-.512v2.24h1.985zm6.157-4.864c3.088 0 5.36 2.464 5.36 5.6 0 3.12-2.272 5.6-5.36 5.6h-4.4v-11.2zm0 9.44c2.128 0 3.584-1.632 3.584-3.84 0-2.224-1.456-3.84-3.584-3.84h-2.56v7.68zm8.285-1.504c.272 1.248 1.28 1.888 2.56 1.888.96 0 1.68-.432 2.064-.992l1.424.832c-.736 1.088-1.936 1.744-3.504 1.744-2.64 0-4.352-1.808-4.352-4.208 0-2.368 1.712-4.208 4.224-4.208 2.384 0 4.016 1.92 4.016 4.224 0 .24-.032.496-.064.72zm-.016-1.408h4.704c-.24-1.376-1.248-1.968-2.288-1.968-1.296 0-2.176.768-2.416 1.968m9.208-1.12c0 1.456 4.304.576 4.304 3.536 0 1.6-1.392 2.464-3.12 2.464-1.6 0-2.752-.72-3.264-1.872l1.488-.864c.256.72.896 1.152 1.776 1.152.768 0 1.36-.256 1.36-.896 0-1.424-4.304-.624-4.304-3.488 0-1.504 1.296-2.448 2.928-2.448 1.312 0 2.4.608 2.96 1.664l-1.456.816c-.288-.624-.848-.912-1.504-.912-.624 0-1.168.272-1.168.848m12.802 5.792h-2.064l-3.28-3.696v3.696h-1.728v-11.2h1.728v6.736l3.104-3.536h2.112l-3.52 3.92zm2.202.192c-.672 0-1.2-.544-1.2-1.2 0-.672.528-1.2 1.2-1.2.656 0 1.2.528 1.2 1.2 0 .656-.544 1.2-1.2 1.2m3.902-9.392a1.117 1.117 0 0 1-1.104-1.104c0-.608.496-1.104 1.104-1.104s1.104.496 1.104 1.104c0 .592-.496 1.104-1.104 1.104m-.864 9.2v-8h1.728v8zm7.511.208c-2.336 0-4.224-1.84-4.224-4.208 0-2.384 1.888-4.208 4.224-4.208 2.352 0 4.224 1.824 4.224 4.208 0 2.368-1.872 4.208-4.224 4.208m0-1.68c1.408 0 2.496-1.072 2.496-2.528s-1.088-2.528-2.496-2.528-2.496 1.072-2.496 2.528 1.088 2.528 2.496 2.528"/>
    <g clip-path="url(#a)">
        <rect width="32" height="32" fill="#1271FF" rx="5"/>
        <g clip-path="url(#b)">
            <g fill="#85F2FD" clip-path="url(#c)">
                <path
                    d="M16.093 20.283a4.29 4.29 0 0 1-4.285-4.285 4.29 4.29 0 0 1 4.285-4.284A4.29 4.29 0 0 1 20.38 16a4.29 4.29 0 0 1-4.286 4.285zm0-6.482A2.2 2.2 0 0 0 13.895 16c0 1.212.987 2.198 2.198 2.198A2.2 2.2 0 0 0 18.292 16a2.2 2.2 0 0 0-2.199-2.199m7.774-2.087-2.844 7.14a1.043 1.043 0 0 0 1.938.772l3.152-7.912zm-15.621.001H6l3.15 7.911a1.043 1.043 0 1 0 1.938-.772z"/>
            </g>
        </g>
    </g>
    <defs>
        <clipPath id="a">
            <rect width="32" height="32" fill="#fff" rx="5"/>
        </clipPath>
        <clipPath id="b">
            <path fill="#fff" d="M4.79 9.916H27v11.168H4.79z"/>
        </clipPath>
        <clipPath id="c">
            <path fill="#fff" d="M6 11.715h20.113v8.57H6z"/>
        </clipPath>
    </defs>
</svg>
