<svg xmlns="http://www.w3.org/2000/svg" fill="none" viewBox="0 0 87 12">
    <path fill="#111928"
          d="M4.4 11.728c-2.288 0-3.792-1.104-4.4-2.768l1.888-1.104c.4 1.04 1.184 1.712 2.576 1.712 1.328 0 1.792-.56 1.792-1.184 0-.832-.752-1.152-2.416-1.632C2.128 6.256.464 5.536.464 3.408.464 1.296 2.224.08 4.144.08c1.84 0 3.248.944 4 2.512L6.288 3.664c-.4-.848-1.008-1.44-2.144-1.44-.928 0-1.472.48-1.472 1.12 0 .688.432 1.056 2.128 1.568 1.776.56 3.664 1.152 3.664 3.44 0 2.096-1.68 3.376-4.064 3.376m9.856-8.448c1.696 0 3.024 1.184 3.024 3.312v4.912h-2.064V6.848c0-1.088-.656-1.648-1.584-1.648-1.008 0-1.76.592-1.76 1.984v4.32H9.808V.304h2.064V4.4c.48-.72 1.312-1.12 2.384-1.12m8.594 8.448c-2.352 0-4.224-1.84-4.224-4.224S20.498 3.28 22.85 3.28s4.24 1.84 4.24 4.224-1.888 4.224-4.24 4.224m0-2.016c1.232 0 2.176-.912 2.176-2.208s-.944-2.208-2.176-2.208c-1.216 0-2.16.912-2.16 2.208s.944 2.208 2.16 2.208m10.096-4.224H31.14v3.328c0 .864.624.88 1.808.816v1.872c-2.897.32-3.873-.528-3.873-2.688V5.488h-1.392V3.504h1.393V1.888l2.064-.624v2.24h1.808zM39.072.304c3.088 0 5.392 2.448 5.392 5.6s-2.304 5.6-5.392 5.6h-4.448V.304zm0 9.088c1.936 0 3.28-1.424 3.28-3.488s-1.344-3.488-3.28-3.488h-2.24v6.976zm8.606-1.04c.288 1.056 1.168 1.504 2.256 1.504.8 0 1.44-.336 1.792-.8l1.664.96c-.752 1.088-1.952 1.712-3.488 1.712-2.688 0-4.384-1.84-4.384-4.224s1.712-4.224 4.224-4.224c2.368 0 4.048 1.872 4.048 4.224 0 .304-.032.576-.08.848zm-.032-1.6h4.08c-.256-1.152-1.12-1.616-1.984-1.616-1.104 0-1.856.592-2.096 1.616m9.176-.976c0 1.184 4.128.448 4.128 3.392 0 1.728-1.504 2.56-3.216 2.56-1.6 0-2.784-.672-3.36-1.904l1.792-1.008c.224.656.768 1.04 1.568 1.04.656 0 1.104-.224 1.104-.688 0-1.168-4.128-.528-4.128-3.344 0-1.632 1.392-2.544 3.04-2.544 1.296 0 2.416.592 3.04 1.696l-1.76.96c-.24-.512-.688-.816-1.28-.816-.512 0-.928.224-.928.656m12.832 5.728h-2.4L64.34 7.872v3.632h-2.064V.304h2.064v6.72l2.752-3.52h2.464L66.34 7.456z"/>
    <path fill="#1271FF"
          d="M71.883 11.712a1.359 1.359 0 1 1 0-2.72 1.359 1.359 0 1 1 0 2.72m4.105-9.168a1.277 1.277 0 0 1-1.264-1.264c0-.688.576-1.28 1.264-1.28.704 0 1.28.592 1.28 1.28a1.28 1.28 0 0 1-1.28 1.264m-1.024 8.96v-8h2.064v8zm7.761.224c-2.352 0-4.224-1.84-4.224-4.224s1.872-4.224 4.224-4.224 4.24 1.84 4.24 4.224-1.888 4.224-4.24 4.224m0-2.016c1.232 0 2.176-.912 2.176-2.208s-.944-2.208-2.176-2.208c-1.216 0-2.16.912-2.16 2.208s.944 2.208 2.16 2.208"/>
</svg>
