<svg xmlns="http://www.w3.org/2000/svg" fill="none" viewBox="0 0 14 14">
    <path fill="currentColor"
          d="m10.155 12.479-.3-.52zm-8.703-2.324.52-.3zm2.34-8.698-.3-.52zm8.41 1.862-.044.599a.6.6 0 0 0 .637-.506zm.907-1.908a.6.6 0 0 0-1.186-.186l.593.093zM10.2 2.572a.6.6 0 0 0-.087 1.197l.043-.598zM13.666 5a.6.6 0 1 0-1.151.339l.575-.17zm-3.51 7.48-.3-.52a5.77 5.77 0 0 1-7.884-2.104l-.52.3-.52.3c1.924 3.332 6.188 4.469 9.523 2.543zm-8.704-2.324.52-.3a5.77 5.77 0 0 1 2.12-7.879l-.3-.52-.3-.519C.156 2.863-.991 7.124.932 10.455zm2.34-8.698.3.52a5.77 5.77 0 0 1 7.618 1.685l.492-.343.492-.343A6.97 6.97 0 0 0 3.492.937zm8.41 1.862.593.093.314-2-.593-.094-.593-.093-.314 2.001zm0 0 .043-.598-2.045-.149-.043.599-.044.598 2.045.149zm.888 1.85-.575.169a5.775 5.775 0 0 1-2.66 6.621l.3.52.3.52a6.975 6.975 0 0 0 3.21-8z"/>
</svg>
