<svg xmlns="http://www.w3.org/2000/svg" fill="none" viewBox="0 0 16 18">
    <path stroke="currentColor" stroke-linecap="round" stroke-linejoin="round" stroke-width="1.2"
          d="M4.1.6h-.7c-.98 0-1.47 0-1.845.218a1.9 1.9 0 0 0-.764.874C.6 2.12.6 2.68.6 3.8v9.6c0 1.12 0 1.68.19 2.108.169.376.436.683.765.874.374.218.864.218 1.842.218H4.1m0-16h7.7c.98 0 1.47 0 1.844.218.33.192.598.498.765.874.191.427.191.987.191 2.105v9.607c0 1.118 0 1.677-.19 2.104a1.9 1.9 0 0 1-.766.874c-.374.218-.863.218-1.841.218H4.1m0-16v16m3.5-9h3.5m-3.5-3h3.5"/>
</svg>
