<svg xmlns="http://www.w3.org/2000/svg" fill="none" viewBox="0 0 16 20">
    <path stroke="currentColor" stroke-linecap="round" stroke-linejoin="round" stroke-width="1.2"
          d="M14.6 11.677V9.254c0-.826-.332-1.619-.922-2.203a3.17 3.17 0 0 0-2.228-.913h-1.4c-.278 0-.545-.109-.742-.304A1.03 1.03 0 0 1 9 5.1V3.715c0-.826-.332-1.618-.923-2.203A3.17 3.17 0 0 0 5.85.6H4.1m6.3 11.077H4.8M6.2.6H1.65C1.07.6.6 1.065.6 1.638v15.923c0 .574.47 1.039 1.05 1.039h11.9c.58 0 1.05-.465 1.05-1.039V8.908a8.26 8.26 0 0 0-2.46-5.875A8.45 8.45 0 0 0 6.2.6"/>
</svg>
