<svg xmlns="http://www.w3.org/2000/svg" fill="none" viewBox="0 0 16 16">
    <path stroke="currentColor" stroke-linecap="round" stroke-linejoin="round" stroke-width="1.2"
          d="M3.517.6v1.75M11.683.6v1.75M.6 12.85V4.1a1.75 1.75 0 0 1 1.75-1.75h10.5A1.75 1.75 0 0 1 14.6 4.1v8.75m-14 0a1.75 1.75 0 0 0 1.75 1.75h10.5a1.75 1.75 0 0 0 1.75-1.75m-14 0V7.017a1.75 1.75 0 0 1 1.75-1.75h10.5a1.75 1.75 0 0 1 1.75 1.75v5.833m-7-4.667h.006v.007H7.6zm0 1.75h.006v.007H7.6zm0 1.75h.006v.007H7.6zm-1.75-1.75h.006v.007H5.85zm0 1.75h.006v.007H5.85zM4.1 9.933h.006v.007H4.1zm0 1.75h.006v.007H4.1zm5.25-3.5h.006v.007H9.35zm0 1.75h.006v.007H9.35zm0 1.75h.006v.007H9.35zm1.75-3.5h.006v.007H11.1zm0 1.75h.006v.007H11.1z"/>
</svg>
