<svg xmlns="http://www.w3.org/2000/svg" fill="none" viewBox="0 0 16 17">
    <path stroke="currentColor" stroke-linecap="round" stroke-linejoin="round" stroke-width="1.5"
          d="M5.79 1.516A.92.92 0 0 1 6.694.75h2.112c.448 0 .831.324.904.766l.174 1.043c.051.305.255.559.525.709q.09.048.18.103c.264.16.586.21.875.101l.991-.371a.916.916 0 0 1 1.116.399l1.056 1.83a.916.916 0 0 1-.212 1.166l-.817.673a1.01 1.01 0 0 0-.35.808v.208c-.006.308.112.611.35.807l.818.674a.92.92 0 0 1 .212 1.165l-1.057 1.83a.916.916 0 0 1-1.116.4l-.99-.371a1.01 1.01 0 0 0-.877.1q-.09.055-.18.105c-.27.149-.473.403-.524.708l-.174 1.043a.916.916 0 0 1-.904.766H6.693a.92.92 0 0 1-.904-.766l-.173-1.043a1.01 1.01 0 0 0-.525-.709 5 5 0 0 1-.18-.103 1.01 1.01 0 0 0-.876-.101l-.99.371a.916.916 0 0 1-1.116-.399l-1.056-1.83a.92.92 0 0 1 .211-1.166l.818-.674c.238-.195.356-.499.35-.807v-.208a1.01 1.01 0 0 0-.35-.808l-.818-.673A.916.916 0 0 1 .873 5.33l1.056-1.83a.916.916 0 0 1 1.116-.4l.99.371c.29.109.612.059.877-.1q.089-.054.18-.105c.27-.15.473-.403.524-.708z"/>
    <path stroke="currentColor" stroke-linecap="round" stroke-linejoin="round" stroke-width="1.5"
          d="M10.193 8.08a2.444 2.444 0 1 1-4.887.001 2.444 2.444 0 0 1 4.887 0"/>
</svg>
