<svg xmlns="http://www.w3.org/2000/svg" fill="none" viewBox="0 0 16 16">
    <path stroke="currentColor" stroke-linecap="round" stroke-width="1.2"
          d="M7.6 7.6c1.2 0 2.327.317 3.3.873M7.6 7.6a6.64 6.64 0 0 1-2.406 2.422M7.6 7.6a6.64 6.64 0 0 1-.894-3.294M10.9 8.473a10 10 0 0 1-.895 1.549 9.97 9.97 0 0 1-5.473 3.872M10.9 8.473a6.7 6.7 0 0 1 2.66 2.802m-8.366-1.253q-.255-.363-.48-.755a9.97 9.97 0 0 1-1.03-7.47m1.51 8.225a6.7 6.7 0 0 1-3.756.902m5.268-6.618A6.7 6.7 0 0 1 7.802.603M6.706 4.306q.442-.04.894-.04a9.97 9.97 0 0 1 6.983 2.843m-10.9-5.311A7 7 0 0 0 .6 7.6a7 7 0 0 0 .838 3.324m2.245-9.126A6.97 6.97 0 0 1 7.803.603m0 0a7 7 0 0 1 6.78 6.506m0 0q.017.243.017.491c0 1.348-.38 2.607-1.04 3.675m0 0A7 7 0 0 1 7.6 14.6a7 7 0 0 1-3.068-.706m0 0a7.03 7.03 0 0 1-3.094-2.97"/>
</svg>
