<svg xmlns="http://www.w3.org/2000/svg" fill="none" viewBox="0 0 16 14">
    <path stroke="currentColor" stroke-linecap="round" stroke-linejoin="round" stroke-width="1.2"
          d="M5.267 6.045v7m0-7H1.844c-.435 0-.653 0-.82.084a.78.78 0 0 0-.34.34C.6 6.636.6 6.853.6 7.29v5.756h4.667m0-7v-4.2c0-.436 0-.654.084-.82a.78.78 0 0 1 .34-.34C5.858.6 6.075.6 6.511.6h2.178c.435 0 .653 0 .82.085a.78.78 0 0 1 .34.34c.084.166.084.384.084.82V3.71m-4.666 9.334h4.666m0 0H14.6v-8.09c0-.435 0-.653-.085-.82a.78.78 0 0 0-.34-.339c-.165-.085-.384-.085-.82-.085H9.934m0 9.334V3.71"/>
</svg>
