<svg xmlns="http://www.w3.org/2000/svg" fill="none" viewBox="0 0 16 14">
    <path stroke="currentColor" stroke-linecap="round" stroke-linejoin="round" stroke-width="1.2"
          d="M11.232 9.198a2.13 2.13 0 0 1 2.296-.085c.352.208.638.513.827.88.188.366.27.78.238 1.192a6.4 6.4 0 0 1-2.686.35 4.4 4.4 0 0 0-.675-2.336A4.34 4.34 0 0 0 9.67 7.713a4.25 4.25 0 0 0-4.142 0 4.34 4.34 0 0 0-1.561 1.486m7.938 2.335.001.022q0 .247-.026.487A8.46 8.46 0 0 1 7.599 13.2c-1.558 0-3.02-.42-4.28-1.157a5 5 0 0 1-.027-.51m0 0a6.35 6.35 0 0 1-2.685-.348c-.033-.412.05-.825.238-1.192.189-.366.475-.671.827-.879a2.13 2.13 0 0 1 2.296.085m-.676 2.335a4.4 4.4 0 0 1 .676-2.335M9.753 2.79a2.2 2.2 0 0 1-.63 1.55c-.405.41-.952.642-1.524.642-.57 0-1.119-.231-1.523-.642a2.2 2.2 0 0 1-.63-1.55c0-.58.226-1.138.63-1.55C6.48.832 7.028.6 7.6.6c.572 0 1.12.23 1.523.642.404.41.631.968.631 1.55m4.308 2.192a1.67 1.67 0 0 1-.473 1.162 1.61 1.61 0 0 1-1.142.481 1.6 1.6 0 0 1-1.143-.481 1.64 1.64 0 0 1-.473-1.162c0-.436.17-.854.473-1.162a1.6 1.6 0 0 1 1.143-.482c.428 0 .839.173 1.142.482.303.308.473.726.473 1.162m-9.692 0a1.67 1.67 0 0 1-.474 1.162 1.61 1.61 0 0 1-1.142.481 1.6 1.6 0 0 1-1.142-.481 1.65 1.65 0 0 1-.473-1.162c0-.436.17-.854.473-1.162a1.6 1.6 0 0 1 1.142-.482c.429 0 .84.173 1.142.482.303.308.474.726.474 1.162"/>
</svg>
