<svg xmlns="http://www.w3.org/2000/svg" fill="none" viewBox="0 0 16 14">
    <path stroke="currentColor" stroke-linecap="round" stroke-linejoin="round" stroke-width="1.2"
          d="M6.327 1.8H14.6m-8.273 0c0 .318-.134.623-.372.849a1.3 1.3 0 0 1-.9.351c-.338 0-.662-.126-.9-.351a1.17 1.17 0 0 1-.373-.849m2.545 0c0-.318-.134-.623-.372-.849a1.3 1.3 0 0 0-.9-.351c-.338 0-.662.126-.9.351-.239.226-.373.53-.373.849m0 0H.6m5.727 9.6H14.6m-8.273 0c0 .318-.134.624-.372.848a1.3 1.3 0 0 1-.9.352c-.338 0-.662-.126-.9-.351a1.17 1.17 0 0 1-.373-.849m2.545 0c0-.318-.134-.623-.372-.848a1.3 1.3 0 0 0-.9-.352c-.338 0-.662.126-.9.352-.239.225-.373.53-.373.848m0 0H.6m10.818-4.8H14.6m-3.182 0c0 .318-.134.623-.372.849a1.3 1.3 0 0 1-.9.351c-.338 0-.662-.126-.9-.351a1.17 1.17 0 0 1-.373-.849m2.545 0c0-.318-.134-.623-.372-.849a1.3 1.3 0 0 0-.9-.351c-.338 0-.662.126-.9.351-.24.226-.373.53-.373.849m0 0H.6"/>
</svg>
