<svg xmlns="http://www.w3.org/2000/svg" fill="none" viewBox="0 0 16 16">
    <path stroke="currentColor" stroke-linecap="round" stroke-linejoin="round" stroke-width="1.2"
          d="M10.859 12.446H4.34m6.518 0c.576 0 1.129.227 1.536.631s.636.952.636 1.523H2.17c0-.571.229-1.12.636-1.523.407-.404.96-.63 1.536-.63m6.518 0v-2.424a.81.81 0 0 0-.815-.808h-.63M4.34 12.446v-2.423c0-.446.365-.808.815-.808h.631m3.626 0H5.787m3.626 0a5.3 5.3 0 0 1-.71-2.277M5.786 9.215c.407-.696.65-1.475.71-2.277m2.205 0a4.9 4.9 0 0 0 1.99-.97m-1.99.97a4.95 4.95 0 0 1-2.204 0m0 0a4.9 4.9 0 0 1-1.99-.97M2.712 2.027Q1.646 2.18.6 2.399a4.3 4.3 0 0 0 1.34 2.446 4.37 4.37 0 0 0 2.568 1.124M2.712 2.026v.19c0 1.513.7 2.864 1.796 3.753M2.712 2.026V.938A35 35 0 0 1 7.6.6c1.66 0 3.292.115 4.888.337v1.089m0 0v.19a4.82 4.82 0 0 1-1.796 3.753m1.796-3.943q1.062.153 2.112.373a4.3 4.3 0 0 1-1.34 2.446 4.37 4.37 0 0 1-2.568 1.124"/>
</svg>
